<svg width="130" height="130" viewBox="0 0 130 130" fill="none" xmlns="http://www.w3.org/2000/svg">
<path d="M34.9741 27.3684V84.5933H94.3985V27.3684C94.3985 27.3684 94.7501 17.0006 86.3514 13.0622C77.0664 8.70813 64.6863 0 64.6863 0C64.6863 0 52.3062 8.70813 43.0212 13.0622C34.6225 17.0006 34.9741 27.3684 34.9741 27.3684Z" fill="#71A59C"/>
<path d="M102.762 33.4173L45.8095 33.4173L45.8095 93.126H102.762C102.762 93.126 113.08 93.4793 117 85.0405C121.333 75.711 130 63.2717 130 63.2717C130 63.2717 121.333 50.8324 117 41.5029C113.08 33.064 102.762 33.4173 102.762 33.4173Z" fill="#71A59C"/>
<path d="M27.2381 93.126H84.1905V33.4173H27.2381C27.2381 33.4173 16.9197 33.064 13 41.5029C8.66667 50.8324 0 63.2717 0 63.2717C0 63.2717 8.66667 75.711 13 85.0405C16.9197 93.4793 27.2381 93.126 27.2381 93.126Z" fill="#71A59C"/>
<path d="M94.3985 102.632L94.3985 45.4067L34.9741 45.4067L34.9741 102.632C34.9741 102.632 34.6225 112.999 43.0212 116.938C52.3062 121.292 64.6863 130 64.6863 130C64.6863 130 77.0664 121.292 86.3514 116.938C94.7501 112.999 94.3985 102.632 94.3985 102.632Z" fill="#71A59C"/>
<path d="M57.8403 59.5633L57.8403 65.8648C57.8403 68.012 58.0418 69.6769 58.4449 70.8594C58.2279 71.0772 57.9333 71.2639 57.5612 71.4195C57.1891 71.6062 56.7705 71.6996 56.3054 71.6996C55.6542 71.6996 55.1271 71.5129 54.724 71.1394C54.3519 70.766 54.1658 70.2681 54.1658 69.6457L54.1193 59.5633C53.8713 59.1899 53.7007 58.9098 53.6077 58.7231L45.2821 41.7323C44.9721 41.0788 44.4449 40.3476 43.7008 39.5385C43.9798 39.2273 44.3519 38.9472 44.817 38.6983C45.2821 38.4493 45.8093 38.3249 46.3984 38.3249C47.0496 38.3249 47.5612 38.496 47.9333 38.8383C48.3054 39.1806 48.6465 39.6941 48.9566 40.3787L56.5844 56.856L63.7937 41.499C64.1038 40.7832 64.2588 40.2386 64.2588 39.8652C64.2588 39.3984 64.1503 39.0095 63.9333 38.6983C64.4914 38.4493 65.1736 38.3249 65.9798 38.3249C66.5689 38.3249 67.0185 38.496 67.3286 38.8383C67.6387 39.1806 67.8092 39.6163 67.8402 40.1453C67.8402 40.7365 67.5302 41.5456 66.91 42.5725L57.8403 59.5633Z" fill="white"/>
<path d="M71.0362 84.2693C71.0362 86.5098 71.2223 88.1747 71.5944 89.2638C70.9432 89.8239 70.2145 90.104 69.4083 90.104C68.8192 90.104 68.3386 89.9173 67.9665 89.5439C67.5944 89.1705 67.4083 88.6726 67.4083 88.0502L67.3153 61.7705L57.1293 84.5027C56.3851 84.7827 55.7029 84.9228 55.0828 84.9228C54.5247 84.9228 54.0285 84.8138 53.5944 84.596C50.0906 77.9366 46.4316 70.3748 42.6177 61.9105L42.6642 84.2693C42.6642 86.6032 42.8658 88.3614 43.2689 89.5439C42.8348 89.9173 42.3231 90.104 41.734 90.104C40.8348 90.104 40.3852 89.5283 40.3852 88.3769L40.3386 62.564C40.3386 60.3546 40.2456 58.6275 40.0596 57.3828C40.4317 57.0094 41.2534 56.8226 42.5247 56.8226C43.3619 56.8226 44.013 57.0716 44.4782 57.5695L48.3386 65.7381L55.827 81.3286C56.4471 79.9593 58.6022 75.0582 62.2921 66.625C63.2223 64.4156 64.0285 62.5329 64.7107 60.977C65.3928 59.4211 65.951 58.1607 66.3851 57.1961C67.0362 56.9471 67.7959 56.8226 68.6642 56.8226C69.2533 56.8226 69.7649 56.9316 70.199 57.1494C70.6641 57.3672 70.9122 57.6317 70.9432 57.9429L71.0362 84.2693Z" fill="white"/>
<path d="M81.3618 78.2345L81.3618 84.536C81.3618 86.6832 81.5633 88.348 81.9664 89.5305C81.7494 89.7484 81.4548 89.9351 81.0827 90.0907C80.7106 90.2774 80.292 90.3707 79.8269 90.3707C79.1758 90.3707 78.6486 90.184 78.2455 89.8106C77.8734 89.4372 77.6874 88.9393 77.6874 88.3169L77.6409 78.2345C77.3928 77.8611 77.2223 77.581 77.1292 77.3943L68.8037 60.4035C68.4936 59.75 67.9665 59.0187 67.2223 58.2097C67.5014 57.8985 67.8735 57.6184 68.3386 57.3694C68.8037 57.1205 69.3308 56.996 69.92 56.996C70.5711 56.996 71.0827 57.1672 71.4548 57.5095C71.8269 57.8518 72.168 58.3652 72.4781 59.0499L80.106 75.5272L87.3153 60.1701C87.6253 59.4544 87.7804 58.9098 87.7804 58.5364C87.7804 58.0696 87.6719 57.6806 87.4548 57.3694C88.0129 57.1205 88.6951 56.996 89.5013 56.996C90.0905 56.996 90.5401 57.1672 90.8501 57.5095C91.1602 57.8518 91.3308 58.2874 91.3618 58.8165C91.3618 59.4077 91.0517 60.2168 90.4315 61.2437L81.3618 78.2345Z" fill="white"/>
<path d="M87.7339 90.1974C87.0517 90.1974 86.4626 89.9484 85.9664 89.4505C85.4703 88.9526 85.2222 88.3614 85.2222 87.6768C85.2222 86.961 85.4703 86.3698 85.9664 85.903C86.4626 85.4051 87.0517 85.1562 87.7339 85.1562C88.447 85.1562 89.0362 85.4051 89.5013 85.903C89.9974 86.3698 90.2455 86.961 90.2455 87.6768C90.2455 88.3614 89.9974 88.9526 89.5013 89.4505C89.0362 89.9484 88.447 90.1974 87.7339 90.1974Z" fill="white"/>
<path d="M69.1691 48.5673C69.1691 46.4335 69.6342 44.5397 70.5645 42.886C71.4947 41.2322 72.7705 39.9252 74.3917 38.965C76.0395 38.0048 77.9 37.5247 79.9731 37.5247C82.0728 37.5247 83.9332 38.0048 85.5545 38.965C87.1757 39.9252 88.4382 41.2322 89.3418 42.886C90.2721 44.5397 90.7372 46.4335 90.7372 48.5673C90.7372 50.6745 90.2721 52.555 89.3418 54.2087C88.4382 55.8891 87.1757 57.1961 85.5545 58.1296C83.9598 59.0899 82.0993 59.57 79.9731 59.57C77.8734 59.57 76.013 59.0899 74.3917 58.1296C72.7705 57.1961 71.4947 55.8891 70.5645 54.2087C69.6342 52.555 69.1691 50.6745 69.1691 48.5673ZM72.518 48.5673C72.518 49.9277 72.8236 51.1413 73.4349 52.2082C74.0462 53.3018 74.91 54.1553 76.0263 54.7688C77.1691 55.3823 78.4847 55.689 79.9731 55.689C81.488 55.689 82.7904 55.3823 83.8801 54.7688C84.9963 54.1553 85.8601 53.3018 86.4714 52.2082C87.0827 51.1413 87.3884 49.9277 87.3884 48.5673C87.3884 47.207 87.0827 45.9934 86.4714 44.9264C85.8601 43.8595 84.9963 43.006 83.8801 42.3658C82.7904 41.7257 81.488 41.4056 79.9731 41.4056C78.4847 41.4056 77.1691 41.7257 76.0263 42.3658C74.91 43.006 74.0462 43.8595 73.4349 44.9264C72.8236 45.9934 72.518 47.207 72.518 48.5673Z" fill="white"/>
</svg>
